<?xml version="1.0" encoding="utf-8"?>
<!-- Generator: Adobe Illustrator 19.0.0, SVG Export Plug-In . SVG Version: 6.00 Build 0)  -->
<svg version="1.1" id="Layer_1" xmlns="http://www.w3.org/2000/svg" xmlns:xlink="http://www.w3.org/1999/xlink" x="0px" y="0px"
	 viewBox="0 0 100 100" style="enable-background:new 0 0 100 100;" xml:space="preserve">
<style type="text/css">
	.st0{fill:url(#XMLID_2_);}
	.st1{fill:url(#XMLID_5_);}
</style>
<linearGradient id="XMLID_2_" gradientUnits="userSpaceOnUse" x1="29.3702" y1="53.1386" x2="77.4497" y2="11.9466" gradientTransform="matrix(1 0 0 -1 0 100)">
	<stop  offset="0" style="stop-color:#2B3990"/>
	<stop  offset="1" style="stop-color:#1C75BC"/>
</linearGradient>
<path id="XMLID_3_" class="st0" d="M93.1,97.1H8c-3.4,0-6.1-2.8-6.1-6.1V39.1C1.9,35.7,4.7,33,8,33h85.2c3.4,0,6.1,2.8,6.1,6.1V91
	C99.3,94.4,96.5,97.1,93.1,97.1z M8,37.9c-0.6,0-1.1,0.5-1.1,1.1v52c0,0.6,0.5,1.1,1.1,1.1h85.2c0.6,0,1.1-0.5,1.1-1.1V39.1
	c0-0.6-0.5-1.1-1.1-1.1L8,37.9L8,37.9z"/>
<linearGradient id="XMLID_5_" gradientUnits="userSpaceOnUse" x1="43.4272" y1="69.5459" x2="91.5067" y2="28.3539" gradientTransform="matrix(1 0 0 -1 0 100)">
	<stop  offset="0" style="stop-color:#2B3990"/>
	<stop  offset="1" style="stop-color:#1C75BC"/>
</linearGradient>
<polygon id="XMLID_4_" class="st1" points="50.5,68 3,37.5 5.7,33.3 50.5,62.1 95.4,33.3 98.1,37.5 "/>
</svg>
