<?xml version="1.0" encoding="utf-8"?>
<!-- Generator: Adobe Illustrator 19.0.0, SVG Export Plug-In . SVG Version: 6.00 Build 0)  -->
<svg version="1.1" id="Layer_1" xmlns="http://www.w3.org/2000/svg" xmlns:xlink="http://www.w3.org/1999/xlink" x="0px" y="0px"
	 viewBox="0 0 100 100" style="enable-background:new 0 0 100 100;" xml:space="preserve">
<style type="text/css">
	.st0{fill:url(#XMLID_2_);}
	.st1{fill:url(#XMLID_4_);}
</style>
<linearGradient id="XMLID_2_" gradientUnits="userSpaceOnUse" x1="13.5" y1="14.2229" x2="89.9935" y2="90.3268">
	<stop  offset="0" style="stop-color:#2B3990"/>
	<stop  offset="1" style="stop-color:#1C75BC"/>
</linearGradient>
<path id="XMLID_3_" class="st0" d="M50,98.1c-26.2,0-47.5-21.3-47.5-47.5S23.8,3.1,50,3.1c26.2,0,47.5,21.3,47.5,47.5
	S76.2,98.1,50,98.1z M50,8.1C26.6,8.1,7.5,27.1,7.5,50.6S26.6,93.1,50,93.1c23.4,0,42.5-19.1,42.5-42.5S73.5,8.1,50,8.1z"/>
<g id="XMLID_9_">
	<linearGradient id="XMLID_4_" gradientUnits="userSpaceOnUse" x1="37.0066" y1="37.3416" x2="76.0696" y2="76.2057">
		<stop  offset="0" style="stop-color:#2B3990"/>
		<stop  offset="1" style="stop-color:#1C75BC"/>
	</linearGradient>
	<path id="XMLID_56_" class="st1" d="M57.5,33.1c-1.3,1.1-1.7,5.8-1.8,9.5h16.4L70.3,54H55.6v42.7H44.1V54H33.4V42.6h10.7
		c0.3-9.1,1.5-14.6,5.9-18.3c4.7-3.9,11.1-3.9,21.6-3.9h1v11.4h-1C64.8,31.8,59,31.8,57.5,33.1z"/>
</g>
</svg>
