<?xml version="1.0" encoding="utf-8"?>
<!-- Generator: Adobe Illustrator 19.0.0, SVG Export Plug-In . SVG Version: 6.00 Build 0)  -->
<svg version="1.1" id="Layer_1" xmlns="http://www.w3.org/2000/svg" xmlns:xlink="http://www.w3.org/1999/xlink" x="0px" y="0px"
	 viewBox="0 0 100 100" style="enable-background:new 0 0 100 100;" xml:space="preserve">
<style type="text/css">
	.st0{fill:url(#XMLID_4_);}
	.st1{fill:url(#XMLID_5_);}
	.st2{fill:url(#XMLID_7_);}
</style>
<linearGradient id="XMLID_4_" gradientUnits="userSpaceOnUse" x1="5.823" y1="94.7741" x2="95.0736" y2="4.3158" gradientTransform="matrix(1 0 0 -1 0 100)">
	<stop  offset="0" style="stop-color:#2B3990"/>
	<stop  offset="1" style="stop-color:#1C75BC"/>
</linearGradient>
<path id="XMLID_3_" class="st0" d="M91.9,97.3H8.1c-3,0-5.5-2.4-5.5-5.5V8.1c0-3,2.4-5.5,5.5-5.5h83.6c3,0,5.5,2.4,5.5,5.5v83.6
	C97.3,94.8,94.8,97.3,91.9,97.3z M12.9,92.4h74c3,0,5.5-2.4,5.5-5.5v-74c0-3-2.4-5.5-5.5-5.5h-74c-3,0-5.5,2.4-5.5,5.5v74
	C7.6,90,10,92.4,12.9,92.4z"/>
<g id="XMLID_1_">
	
		<linearGradient id="XMLID_5_" gradientUnits="userSpaceOnUse" x1="-12.4884" y1="79.7971" x2="79.8834" y2="-13.8246" gradientTransform="matrix(1 0 0 -1 0 100)">
		<stop  offset="0" style="stop-color:#2B3990"/>
		<stop  offset="1" style="stop-color:#1C75BC"/>
	</linearGradient>
	<path id="XMLID_6_" class="st1" d="M14.2,31.7c0-4.4,3.6-7.8,9-7.8s9,3.2,9,7.5c0,4.6-3.6,8-9,8S14.2,36,14.2,31.7z M15.8,44h14.6
		v41.8H15.8V44z"/>
	
		<linearGradient id="XMLID_7_" gradientUnits="userSpaceOnUse" x1="0.796" y1="92.9041" x2="93.1677" y2="-0.7176" gradientTransform="matrix(1 0 0 -1 0 100)">
		<stop  offset="0" style="stop-color:#2B3990"/>
		<stop  offset="1" style="stop-color:#1C75BC"/>
	</linearGradient>
	<path id="XMLID_9_" class="st2" d="M84.4,61.9v23.9H69.7V64.3c0-6-2.6-8.6-6.8-8.6c-4.7,0-8.3,2.9-8.3,9.8v20.2H40V44h13.9v4.5
		c3.3-3.5,8-5.2,13.3-5.2C76.9,43.4,84.4,49,84.4,61.9z"/>
</g>
</svg>
