<?xml version="1.0" encoding="utf-8"?>
<!-- Generator: Adobe Illustrator 19.0.0, SVG Export Plug-In . SVG Version: 6.00 Build 0)  -->
<svg version="1.1" id="Layer_1" xmlns="http://www.w3.org/2000/svg" xmlns:xlink="http://www.w3.org/1999/xlink" x="0px" y="0px"
	 viewBox="0 0 100 100" style="enable-background:new 0 0 100 100;" xml:space="preserve">
<style type="text/css">
	.st0{fill:url(#SVGID_1_);}
	.st1{fill:url(#XMLID_2_);}
	.st2{fill:url(#XMLID_3_);}
	.st3{fill:url(#XMLID_5_);}
</style>
<linearGradient id="SVGID_1_" gradientUnits="userSpaceOnUse" x1="9.3052" y1="105.5339" x2="22.3014" y2="94.233">
	<stop  offset="0" style="stop-color:#2B3990"/>
	<stop  offset="1" style="stop-color:#1C75BC"/>
</linearGradient>
<path class="st0" d="M58.8,85.7c0,8.5-13.7,13-26.7,13c-12.9,0-26.7-4.6-26.7-13c0-6.2,7.3-10.2,16.2-12l2.8,5
	C16,80,10.9,83.2,10.9,85.6c0,3.1,8.3,7.5,21.3,7.5s21.3-4.4,21.3-7.5c0-2.3-4.8-5.5-12.9-6.8l2.8-5C52.1,75.6,59.1,79.6,58.8,85.7z
	"/>
<linearGradient id="XMLID_2_" gradientUnits="userSpaceOnUse" x1="31.663" y1="59.8409" x2="44.6185" y2="48.5753" gradientTransform="matrix(1 0 0 -1 0 100)">
	<stop  offset="0" style="stop-color:#2B3990"/>
	<stop  offset="1" style="stop-color:#1C75BC"/>
</linearGradient>
<path id="XMLID_17_" class="st1" d="M33.7,43.1c-1-1.4-1.9-3-2.6-4.6L33.7,43.1z"/>
<linearGradient id="XMLID_3_" gradientUnits="userSpaceOnUse" x1="32.2057" y1="60.4651" x2="45.1613" y2="49.1995" gradientTransform="matrix(1 0 0 -1 0 100)">
	<stop  offset="0" style="stop-color:#2B3990"/>
	<stop  offset="1" style="stop-color:#1C75BC"/>
</linearGradient>
<path id="XMLID_16_" class="st2" d="M32.4,1.7C16.9,1.7,4.3,14.3,4.3,29.8c0,2.8,0.4,5.5,1.2,8.1C5.8,39,6.2,40,6.6,41l2.9,5.1
	l15.3,27.1l2.9,5.2l4.8,8.5l4.8-8.4l2.9-5.1l16.3-28.8c0.1-0.2,0.2-0.3,0.3-0.5l0.5-0.8c0.8-1.5,1.5-3.2,2-4.9
	c0.8-2.6,1.3-5.4,1.3-8.3C60.5,14.3,47.9,1.7,32.4,1.7z M52.3,40.6l-8.4,14.8l-9.7,17.2l-1.7,3l-1.7-3l-9.7-17.1l-7-12.4
	c-1-1.4-1.9-3-2.6-4.6c-1.1-2.7-1.8-5.6-1.8-8.7c0-12.5,10.1-22.6,22.6-22.6S55,17.3,55,29.8C55,33.7,54,37.4,52.3,40.6z"/>
<linearGradient id="XMLID_5_" gradientUnits="userSpaceOnUse" x1="36.9612" y1="65.9338" x2="49.9167" y2="54.6682" gradientTransform="matrix(1 0 0 -1 0 100)">
	<stop  offset="0" style="stop-color:#2B3990"/>
	<stop  offset="1" style="stop-color:#1C75BC"/>
</linearGradient>
<path id="XMLID_4_" class="st3" d="M32.4,43.9c-7.6,0-13.8-6.2-13.8-13.8s6.2-13.8,13.8-13.8s13.8,6.2,13.8,13.8S40,43.9,32.4,43.9z
	 M32.4,21.7c-4.6,0-8.4,3.8-8.4,8.4s3.8,8.4,8.4,8.4s8.4-3.8,8.4-8.4S37,21.7,32.4,21.7z"/>
</svg>
