<?xml version="1.0" encoding="utf-8"?>
<!-- Generator: Adobe Illustrator 19.0.0, SVG Export Plug-In . SVG Version: 6.00 Build 0)  -->
<svg version="1.1" id="Layer_1" xmlns="http://www.w3.org/2000/svg" xmlns:xlink="http://www.w3.org/1999/xlink" x="0px" y="0px"
	 viewBox="0 0 100 100" style="enable-background:new 0 0 100 100;" xml:space="preserve">
<style type="text/css">
	.st0{fill:url(#XMLID_2_);}
	.st1{fill:url(#XMLID_4_);}
	.st2{fill:url(#XMLID_5_);}
	.st3{fill:url(#XMLID_6_);}
	.st4{fill:none;}
	.st5{fill:url(#XMLID_7_);}
</style>
<linearGradient id="XMLID_2_" gradientUnits="userSpaceOnUse" x1="1.2476" y1="95.5434" x2="66.2537" y2="4.5348" gradientTransform="matrix(1 0 0 -1 0 102)">
	<stop  offset="0" style="stop-color:#2B3990"/>
	<stop  offset="1" style="stop-color:#1C75BC"/>
</linearGradient>
<path id="XMLID_17_" class="st0" d="M50.5,98.1H14.2c-5.4,0-9.9-4.8-9.9-10.7V12.6c0-5.9,4.5-10.7,9.9-10.7h36.3
	c5.4,0,9.9,4.8,9.9,10.7v74.8C60.4,93.3,55.9,98.1,50.5,98.1z M14.2,6.8c-3,0-5.4,2.6-5.4,5.8v74.8c0,3.2,2.4,5.8,5.4,5.8h36.3
	c3,0,5.4-2.6,5.4-5.8V12.6c0-3.2-2.4-5.8-5.4-5.8H14.2z"/>
<linearGradient id="XMLID_4_" gradientUnits="userSpaceOnUse" x1="-13.2147" y1="85.2705" x2="51.7915" y2="-5.7381" gradientTransform="matrix(1 0 0 -1 0 102)">
	<stop  offset="0" style="stop-color:#2B3990"/>
	<stop  offset="1" style="stop-color:#1C75BC"/>
</linearGradient>
<rect id="XMLID_15_" x="6.5" y="79.6" class="st1" width="51.6" height="1.7"/>
<linearGradient id="XMLID_5_" gradientUnits="userSpaceOnUse" x1="16.4678" y1="106.415" x2="81.4739" y2="15.4065" gradientTransform="matrix(1 0 0 -1 0 102)">
	<stop  offset="0" style="stop-color:#2B3990"/>
	<stop  offset="1" style="stop-color:#1C75BC"/>
</linearGradient>
<rect id="XMLID_3_" x="6.5" y="16.9" class="st2" width="51.6" height="1.7"/>
<linearGradient id="XMLID_6_" gradientUnits="userSpaceOnUse" x1="-16.2194" y1="83.067" x2="48.7868" y2="-7.9416" gradientTransform="matrix(1 0 0 -1 0 102)">
	<stop  offset="0" style="stop-color:#2B3990"/>
	<stop  offset="1" style="stop-color:#1C75BC"/>
</linearGradient>
<circle id="XMLID_14_" class="st3" cx="32.4" cy="87" r="3.9"/>
<g id="XMLID_11_">
	<line id="XMLID_13_" class="st4" x1="25.7" y1="11.9" x2="39" y2="11.9"/>
	
		<linearGradient id="XMLID_7_" gradientUnits="userSpaceOnUse" x1="19.334" y1="108.4624" x2="84.3402" y2="17.4537" gradientTransform="matrix(1 0 0 -1 0 102)">
		<stop  offset="0" style="stop-color:#2B3990"/>
		<stop  offset="1" style="stop-color:#1C75BC"/>
	</linearGradient>
	<path id="XMLID_12_" class="st5" d="M37.6,12.9H27.2c-0.8,0-1.4-0.4-1.4-1l0,0c0-0.6,0.6-1,1.4-1h10.5c0.8,0,1.4,0.4,1.4,1l0,0
		C39,12.4,38.4,12.9,37.6,12.9z"/>
</g>
</svg>
